<svg width="640" height="480" xmlns="http://www.w3.org/2000/svg">
 <!-- Created with SVG-edit - http://svg-edit.googlecode.com/ -->
 <g>
  <title>Layer 1</title>
  <line id="svg_1" y2="127" x2="410" y1="170" x1="278" stroke-width="5" stroke="#000000" fill="none"/>
  <path d="m381,207c-7,-2 -15,-4 -26,-4c-12,0 -23.321564,-1.076035 -35,3c-11.408173,3.981689 -40.069031,28.132629 -48,39c-8.189667,11.221832 -15.024384,24.622833 -19,37c-4.080093,12.702484 -7.524002,24.284088 -4,46c1.519623,9.364319 7.205627,17.771729 15,25c7.332306,6.799774 17.919403,11.565033 30,13c13.937683,1.655548 28.235718,2.656982 48,-1c22.422913,-4.148895 48.376251,-14.414154 72,-30c23.386627,-15.429382 77.596405,-66.589905 87,-87c18.397766,-39.931473 17.99054,-63.348831 14,-86c-4.061615,-23.054352 -16.63736,-47.579094 -34,-71c-16.865265,-22.75 -38.010345,-44.735863 -66,-63c-56.558929,-36.906483 -92.220917,-47.050837 -167,-56c-38.774567,-4.640335 -163.668449,20.829639 -211,70c-17.337681,18.011242 -58.915417,80.018234 -46,157c3.195562,19.046997 43.068867,74.711426 66,89c76.704697,47.795288 114.784927,53.711609 222,52c41.189423,-0.657562 153.983002,-23.739441 227,-69c50.176147,-31.102356 65.091187,-51.031631 45,-93c-7.029114,-14.683044 -75.452179,-51.547043 -107,-57c-98.937134,-17.101021 -144.60321,-24.205002 -229,30c-58.306427,37.448105 -79.409744,126.581909 -75,143c17.084793,63.609039 50.141434,86.87912 169,102c32.736145,4.164612 139.686493,-22.140961 165,-39c53.17627,-35.415894 70.412842,-60.116302 36,-117c-12.815613,-21.18396 -111.25415,-65.8125 -153,-72c-125.818253,-18.64856 -189.80632,-25.986679 -302,65c-19.893021,16.132813 -32.485847,69.141571 -27,80c21.365891,42.290649 95.205429,62.136505 183,47c37.095764,-6.395599 151.44986,-60.797394 185,-89c95.806732,-80.536148 108.460724,-105.845047 96,-147c-4.179321,-13.803375 -57.44516,-51.004097 -83,-57c-103.403961,-24.261562 -190.970856,-19.667103 -257,28c-16.636215,12.00985 -43.341187,70.296082 -40,89c15.745369,88.142395 44.750061,108.44931 118,140c25.863129,11.139954 124.461823,23.137604 207,-4c103.306824,-33.966095 133.955017,-52.059326 156,-94c4.744812,-9.027008 -30.092957,-49.798859 -54,-56c-93.77298,-24.323395 -137.119446,-27.442291 -234,8c-25.633209,9.377533 -81.291595,98.321716 -78,115c11.721832,59.393585 32.019531,81.219391 92,94c14.670654,3.126007 65,-5 82,-12l43,-30l9,-10" id="svg_2" stroke-width="5" stroke="#000000" fill="none"/>
 </g>
</svg>